<?xml version="1.0" standalone="no"?>
<!DOCTYPE svg PUBLIC "-//W3C//DTD SVG 20010904//EN"
 "http://www.w3.org/TR/2001/REC-SVG-20010904/DTD/svg10.dtd">
<svg version="1.0" xmlns="http://www.w3.org/2000/svg"
 width="150.000000pt" height="150.000000pt" viewBox="0 0 1000.000000 1000.000000"
 preserveAspectRatio="xMidYMid meet">

<g transform="translate(0.000000,600.000000) scale(0.100000,-0.100000)"
fill="#000000" stroke="none">
<path d="M2087 5739 c-110 -26 -210 -109 -260 -217 -31 -66 -31 -70 -35 -247
-2 -99 -8 -184 -13 -189 -12 -14 -11 -163 1 -171 6 -3 10 -39 10 -80 0 -41 -4
-77 -10 -80 -6 -4 -10 -67 -10 -155 0 -88 4 -151 10 -155 6 -3 10 -26 10 -50
0 -24 -4 -47 -10 -50 -13 -8 -13 -312 0 -320 7 -4 10 -466 10 -1353 0 -784 4
-1371 9 -1404 21 -124 103 -232 219 -286 l57 -27 909 -3 c1015 -3 965 -6 1068
67 31 22 71 64 91 93 71 108 67 3 67 1589 0 941 3 1430 10 1434 13 8 14 507 0
521 -5 5 -10 172 -12 409 l-3 400 -33 67 c-40 82 -117 155 -198 189 l-59 24
-895 2 c-499 0 -912 -3 -933 -8z m341 -151 c7 -7 12 -25 12 -40 0 -41 26 -86
63 -108 31 -19 53 -20 497 -20 437 0 467 1 496 19 33 20 64 75 64 114 0 44 18
49 167 45 125 -3 143 -5 188 -29 63 -32 110 -93 124 -161 8 -38 11 -646 9
-2083 -3 -1931 -4 -2032 -21 -2070 -23 -51 -61 -91 -112 -118 l-40 -22 -880 0
-880 0 -41 22 c-22 12 -55 38 -72 57 -66 76 -62 -69 -62 2161 0 2271 -6 2089
75 2170 28 29 61 49 92 59 61 19 303 22 321 4z m862 -32 c6 -8 10 -25 8 -38
-6 -42 -78 -32 -78 11 0 37 46 55 70 27z m-155 -26 c0 -12 -23 -15 -137 -18
-111 -2 -138 0 -138 11 0 8 3 17 7 21 4 3 66 5 137 4 109 -3 131 -6 131 -18z"/>
<path d="M2303 4239 c-25 -25 -12 -39 85 -95 53 -31 106 -62 118 -70 20 -12
20 -17 12 -71 -11 -67 -52 -139 -105 -179 -27 -20 -40 -25 -52 -17 -118 71
-224 124 -232 116 -19 -19 54 -144 114 -200 62 -56 125 -81 238 -93 87 -10
116 -28 259 -166 l109 -106 36 38 c20 22 61 64 92 95 l55 57 -102 105 c-144
150 -188 208 -194 263 -4 24 -8 63 -11 87 -19 149 -125 228 -330 243 -59 4
-83 3 -92 -7z"/>
<path d="M3633 4110 c-106 -75 -113 -83 -127 -129 -13 -45 -43 -78 -347 -380
l-333 -330 -47 27 c-46 25 -48 26 -68 8 -11 -10 -22 -35 -26 -56 -9 -55 -67
-117 -139 -151 -34 -16 -68 -29 -76 -29 -8 0 -100 -84 -203 -188 -143 -144
-187 -193 -187 -212 1 -66 77 -165 155 -201 75 -35 74 -35 277 169 162 163
187 192 193 227 8 47 25 82 61 124 29 34 92 71 122 71 10 0 29 11 42 25 l23
24 -26 41 c-15 22 -27 43 -27 47 0 5 150 157 333 339 301 300 336 332 379 344
43 11 51 19 128 127 l81 116 -32 33 c-18 19 -35 34 -38 34 -4 0 -56 -36 -118
-80z"/>
<path d="M3080 3315 l-94 -94 130 -133 c170 -176 189 -205 197 -304 8 -103 44
-177 109 -221 56 -37 159 -63 252 -63 54 0 67 3 76 19 12 23 22 15 -120 97
-64 37 -106 68 -109 79 -1 10 5 48 15 84 14 54 26 74 66 113 27 27 56 48 64
48 8 0 64 -29 126 -65 69 -40 116 -61 121 -56 22 22 -52 151 -117 209 -59 52
-176 92 -269 92 -41 0 -106 48 -238 177 l-115 112 -94 -94z"/>
<path d="M747 313 c-21 -98 -37 -184 -37 -190 0 -9 15 -13 43 -13 l43 0 13 67
c19 96 36 133 60 133 26 0 27 -20 2 -123 l-18 -77 47 0 47 0 17 83 c9 45 16
99 16 119 0 61 -52 93 -107 64 l-30 -15 14 52 c19 75 19 77 -30 77 l-43 0 -37
-177z"/>
<path d="M1387 483 c-3 -5 -7 -21 -10 -38 -4 -16 -20 -94 -37 -172 -16 -78
-30 -146 -30 -152 0 -6 19 -11 44 -11 43 0 43 0 52 43 6 27 15 42 24 42 9 0
21 -18 30 -42 l14 -43 53 0 52 0 -16 37 c-8 21 -23 54 -33 73 l-18 36 58 62
59 62 -54 0 c-52 0 -55 -1 -100 -52 -26 -30 -44 -44 -41 -33 10 35 36 166 36
181 0 10 -12 14 -39 14 -22 0 -42 -3 -44 -7z"/>
<path d="M1697 483 c-3 -5 -13 -46 -22 -93 -9 -47 -25 -121 -36 -165 -27 -115
-27 -115 25 -115 l43 0 18 83 c21 99 30 117 55 117 24 0 25 -19 5 -110 -20
-92 -21 -90 30 -90 43 0 44 1 50 38 4 20 11 53 16 72 12 46 11 117 -1 140 -14
27 -62 34 -99 16 l-30 -16 14 41 c8 23 15 52 15 65 0 21 -5 24 -39 24 -22 0
-42 -3 -44 -7z"/>
<path d="M3420 484 c0 -4 -57 -269 -75 -351 -5 -21 -2 -23 35 -23 30 0 40 4
40 16 0 14 2 14 22 0 79 -56 167 27 168 157 0 48 -4 62 -25 82 -28 29 -51 31
-83 9 -25 -17 -26 -15 -13 18 4 13 11 40 15 61 l7 37 -46 0 c-25 0 -45 -2 -45
-6z m100 -209 c0 -47 -26 -97 -48 -93 -40 7 -14 128 27 128 17 0 21 -6 21 -35z"/>
<path d="M3720 471 c-20 -38 10 -67 56 -55 25 6 42 43 29 63 -11 19 -73 13
-85 -8z"/>
<path d="M3886 473 c-3 -10 -19 -85 -36 -168 -16 -82 -32 -160 -35 -172 -5
-21 -2 -23 40 -23 38 0 45 3 50 22 2 13 18 88 35 168 17 80 33 155 35 168 5
20 2 22 -39 22 -34 0 -46 -4 -50 -17z"/>
<path d="M4707 313 c-21 -98 -37 -184 -37 -190 0 -9 15 -13 43 -13 l44 0 12
67 c17 93 35 133 60 133 26 0 27 -20 2 -123 l-18 -77 47 0 47 0 17 83 c9 45
16 99 16 119 0 61 -52 93 -107 64 l-30 -15 14 52 c19 75 19 77 -30 77 l-43 0
-37 -177z"/>
<path d="M531 454 c-41 -21 -65 -73 -55 -117 3 -17 27 -52 51 -79 40 -41 44
-50 32 -64 -13 -16 -49 -15 -106 2 -21 6 -23 3 -23 -29 0 -46 19 -57 100 -57
57 0 65 3 96 34 24 24 34 43 34 65 0 41 -22 84 -54 105 -14 9 -31 26 -37 38
-10 18 -8 24 7 35 10 7 27 10 38 7 12 -3 29 -8 38 -10 11 -3 22 5 32 24 13 26
13 32 1 42 -25 20 -116 23 -154 4z"/>
<path d="M2716 460 l-60 -5 -33 -160 c-18 -88 -35 -166 -38 -172 -3 -9 8 -13
39 -13 49 0 43 -12 71 144 8 43 17 81 20 84 3 3 5 -47 5 -112 l0 -117 46 3 46
3 48 109 c26 59 53 113 58 118 5 5 0 -30 -13 -79 -40 -162 -41 -153 6 -153 22
0 42 5 44 13 3 6 20 85 39 175 l34 162 -54 0 c-30 0 -57 1 -60 3 -4 1 -11 -5
-15 -13 -19 -32 -99 -211 -99 -220 0 -6 -4 -10 -10 -10 -5 0 -11 52 -12 123
l-3 122 -59 -5z"/>
<path d="M4491 454 c-41 -21 -65 -73 -55 -117 3 -17 27 -52 51 -79 40 -41 44
-50 32 -64 -13 -16 -49 -15 -106 2 -21 6 -23 3 -23 -29 0 -46 19 -57 100 -57
57 0 65 3 96 34 24 24 34 43 34 65 0 41 -22 84 -54 105 -14 9 -31 26 -37 38
-10 18 -8 24 6 34 18 13 59 10 81 -7 7 -5 16 4 27 25 21 44 8 56 -65 62 -38 3
-63 0 -87 -12z"/>
<path d="M1136 380 c-60 -19 -105 -91 -106 -168 0 -35 6 -49 29 -73 26 -25 37
-29 86 -29 71 0 95 12 95 49 0 28 0 28 -40 17 -29 -7 -46 -7 -57 0 -32 20 -25
33 24 40 57 8 98 27 107 49 12 32 6 82 -12 98 -22 20 -88 29 -126 17z m61 -66
c7 -18 -20 -44 -44 -44 -18 0 -16 25 3 44 20 20 33 20 41 0z"/>
<path d="M2018 375 c-62 -34 -98 -195 -54 -244 22 -24 84 -29 105 -9 11 10 14
10 18 1 3 -7 20 -13 38 -13 33 0 34 1 45 58 7 31 20 91 30 132 l17 75 -35 3
c-19 2 -38 -2 -42 -8 -5 -9 -15 -8 -38 4 -37 19 -49 19 -84 1z m88 -90 c8 -30
-24 -99 -48 -103 -15 -3 -18 4 -18 40 0 71 51 120 66 63z"/>
<path d="M2410 383 c-8 -3 -23 -12 -32 -21 -16 -14 -18 -13 -18 2 0 14 -7 17
-37 14 l-37 -3 -22 -110 c-13 -60 -26 -120 -29 -133 -5 -22 -3 -23 41 -20 l48
3 16 79 c18 83 35 106 76 106 27 0 29 3 38 53 7 38 -3 45 -44 30z"/>
<path d="M3150 376 c-55 -20 -92 -81 -94 -154 -1 -51 3 -64 24 -87 23 -25 30
-27 87 -23 71 4 96 21 124 83 21 45 25 116 8 147 -11 21 -67 48 -96 47 -10 0
-34 -6 -53 -13z m68 -86 c5 -32 -14 -94 -34 -111 -23 -19 -45 13 -37 55 15 77
63 115 71 56z"/>
<path d="M4072 370 c-53 -24 -81 -79 -82 -158 0 -75 28 -102 104 -102 79 0
106 13 106 50 0 16 -2 30 -4 30 -1 0 -17 -5 -35 -11 -36 -13 -81 -5 -81 15 0
8 22 18 60 25 43 9 65 19 80 38 37 47 22 103 -31 122 -44 15 -67 14 -117 -9z
m74 -55 c8 -20 -13 -45 -37 -45 -23 0 -24 18 -2 42 20 22 32 23 39 3z"/>
<path d="M5096 380 c-39 -12 -66 -38 -87 -85 -27 -59 -25 -117 7 -154 23 -27
32 -31 77 -31 90 0 140 47 153 145 14 99 -52 154 -150 125z m59 -80 c3 -11 4
-28 2 -37 -3 -10 -8 -30 -11 -45 -4 -15 -15 -32 -26 -38 -30 -16 -44 18 -29
73 17 66 50 90 64 47z"/>
<path d="M5438 375 c-16 -9 -28 -11 -28 -5 0 5 -16 10 -35 10 -28 0 -36 -4
-40 -22 -7 -34 -62 -288 -70 -325 l-7 -33 45 0 45 0 11 50 c6 28 11 58 11 65
0 17 16 20 25 5 10 -15 68 -12 93 6 63 44 89 201 39 242 -23 19 -62 22 -89 7z
m20 -116 c-6 -54 -27 -85 -52 -76 -35 14 -4 127 35 127 20 0 21 -4 17 -51z"/>
<path d="M3685 303 c-9 -43 -22 -104 -29 -135 l-13 -58 46 0 47 0 23 113 c12
61 25 122 28 135 5 20 2 22 -40 22 l-45 0 -17 -77z"/>
</g>
</svg>
